<svg width="142" height="132" viewBox="0 0 142 132" fill="none" xmlns="http://www.w3.org/2000/svg">
<g clip-path="url(#clip0_36_345)">
<path d="M53.2403 80.4218L20.0167 28.4054L3.81762 51.1916L0 48.5108L20.2231 20.0797L57.1353 77.9215L53.2403 80.4218Z" fill="#649374"/>
<path d="M138.079 97.1763L104.881 45.1599L88.6565 67.9719L84.8905 65.2654L105.088 36.86L142 94.676L138.079 97.1763Z" fill="#649374"/>
<path d="M23.7569 132L19.8619 129.448L63.4035 63.3579H89.5077L99.9804 79.9578L96.0338 82.4323L86.954 67.9977H65.9055L23.7569 132Z" fill="#649374"/>
<path d="M3.84342 94.2894L0 91.6602L17.1019 66.58L26.4396 80.5764L22.5704 83.1541L17.0761 74.8799L3.84342 94.2894Z" fill="#649374"/>
<path d="M114.245 131.948L88.5275 90.8869L75.3464 111.095L71.4514 108.544L88.6049 82.2777L118.191 129.474L114.245 131.948Z" fill="#649374"/>
<path d="M87.8569 66.2191H83.2138V27.7094L100.78 17.8887C100.78 17.2443 100.625 16.6257 100.316 16.0586C99.8772 15.3111 99.1808 14.744 98.3811 14.4862C96.2402 15.6462 90.359 18.7393 84.452 20.9045C80.6344 22.2964 79.3962 22.7089 76.1203 22.7604C71.3225 22.8377 67.4275 21.2138 66.1377 20.6983L53.5757 15.5431C52.8792 15.8524 52.3117 16.3937 51.9764 17.0639C51.6153 17.7856 51.5637 18.6104 51.7959 19.3837L68.9751 27.3743V64.5437H64.3321V30.3128L48.0556 22.7346L47.4623 21.0334C46.7659 19.0486 46.8949 16.8834 47.8235 15.0018C48.7521 13.0943 50.3771 11.6766 52.3891 11.0065L53.7563 10.5425L67.8144 16.3164C69.0009 16.8061 72.2511 18.1465 76.0945 18.0949C78.545 18.0691 79.2415 17.8629 82.8785 16.5226C89.7657 13.9965 96.885 10.0012 96.9366 9.94963L97.7621 9.48566L99.3355 9.89808C101.477 10.4394 103.256 11.8055 104.366 13.713C105.475 15.6204 105.758 17.8629 105.165 19.9766L104.907 20.9045L87.8827 30.4159V66.2191H87.8569Z" fill="#649374"/>
<path d="M85.5612 38.2519H66.6794V42.8916H85.5612V38.2519Z" fill="#649374"/>
<path d="M78.416 48.717H73.7729V64.5436H78.416V48.717Z" fill="#649374"/>
<path d="M75.7591 22.3738C69.5942 22.3738 64.5642 17.3474 64.5642 11.1869C64.5642 5.02636 69.5684 0 75.7591 0C81.9499 0 86.954 5.02636 86.954 11.1869C86.954 17.3474 81.9241 22.3738 75.7591 22.3738ZM75.7591 4.63972C72.1479 4.63972 69.2073 7.57821 69.2073 11.1869C69.2073 14.7955 72.1479 17.734 75.7591 17.734C79.3704 17.734 82.311 14.7955 82.311 11.1869C82.311 7.57821 79.3704 4.63972 75.7591 4.63972Z" fill="#649374"/>
</g>
<defs>
<clipPath id="clip0_36_345">
<rect width="142" height="132" fill="white"/>
</clipPath>
</defs>
</svg>
