<svg width="109" height="153" viewBox="0 0 109 153" fill="none" xmlns="http://www.w3.org/2000/svg">
<g clip-path="url(#clip0_36_357)">
<path d="M47.4804 64.8712C38.1346 64.8712 32.3443 62.3901 28.8702 59.8485C26.2696 57.9524 24.4614 55.0881 23.8113 51.8001L23.5674 50.6504C22.5313 45.5268 24.563 40.2823 28.7279 37.2767C36.7937 31.4472 49.3902 31.0034 49.9184 30.9833C65.6843 30.5395 72.9984 35.5017 76.371 39.6973C79.3169 43.3483 80.0687 48.2096 78.362 52.3851C74.8066 60.958 62.9822 63.0154 62.4946 63.0961C56.6839 64.3468 51.7266 64.851 47.4804 64.851V64.8712ZM27.1635 49.9444L27.4073 51.0941C27.8949 53.4945 29.1749 55.552 31.0644 56.9237C35.5138 60.1713 44.4532 63.2777 61.8241 59.546C62.007 59.5056 72.2263 57.7305 74.9894 51.0135C76.1881 48.1088 75.6193 44.5586 73.5266 41.9767C70.6619 38.4265 64.2825 34.251 50.02 34.6141C49.9184 34.6141 38.0331 35.0377 30.8815 40.2016C27.8746 42.3801 26.4118 46.1925 27.1635 49.9242V49.9444Z" fill="#649374"/>
<path d="M46.8912 98.9003C33.7259 98.9003 25.7616 95.9553 21.0481 92.9699C17.9193 90.973 15.6845 87.8464 14.7702 84.1551C13.2261 77.9221 15.9892 71.3059 21.4748 68.0583C32.4256 61.5833 49.6137 61.0992 50.3451 61.079C66.3548 60.7562 76.4929 62.1279 82.2629 65.436C86.7326 67.9978 89.3738 72.8591 89.3128 78.4264C89.2519 84.4375 86.1231 89.8434 81.1454 92.5464C74.9691 95.8948 67.8785 96.8832 67.5738 96.9235C59.5689 98.3154 52.7221 98.9003 46.9115 98.9003H46.8912ZM54.6929 64.6695C53.3113 64.6695 51.8891 64.6695 50.4263 64.7098C50.2638 64.7098 33.4821 65.1939 23.3439 71.1848C19.2196 73.6256 17.1676 78.5877 18.3257 83.2877C19.0164 86.0713 20.6824 88.4112 23.0392 89.9039C28.159 93.1717 40.6742 97.9321 67.0252 93.333C67.1674 93.333 73.8314 92.385 79.3982 89.3593C83.2178 87.2816 85.6151 83.086 85.6558 78.386C85.6964 74.15 83.746 70.4788 80.4343 68.5827C75.8427 65.9605 67.3909 64.6695 54.6929 64.6695Z" fill="#649374"/>
<path d="M48.3542 153C26.7776 153 15.1158 146.908 7.96422 143.156L6.44046 142.37C4.91669 141.583 3.57578 140.07 2.35677 137.71C-2.13326 129.077 -0.0609417 118.386 7.39535 111.729C7.98454 111.185 8.59404 110.68 9.18323 110.156L10.2397 109.248C25.3758 95.9956 50.0811 95.3098 51.1376 95.2896C88.3174 94.5231 101.645 106.747 106.278 114.13C108.35 117.418 109.305 121.311 108.98 125.103C107.232 145.375 77.5901 149.934 76.3305 150.136C65.5219 152.173 56.2777 153 48.3948 153H48.3542ZM54.6727 98.8801C53.535 98.8801 52.3972 98.8801 51.1985 98.9205C50.9547 98.9205 26.7573 99.6063 12.6371 111.971L11.5806 112.899C10.9914 113.404 10.4022 113.908 9.83337 114.432C3.61641 119.979 1.88948 128.875 5.60746 136.036C6.66394 138.093 7.55788 138.86 8.12676 139.142L9.67084 139.949C19.0369 144.851 36.4891 153.968 75.7007 146.545C76.0461 146.485 103.819 142.208 105.323 124.8C105.587 121.775 104.815 118.668 103.169 116.046C99.0854 109.531 87.4032 98.8801 54.693 98.8801H54.6727Z" fill="#649374"/>
<path d="M85.2494 44.014C83.9898 44.014 82.9536 42.9852 82.9536 41.7346C82.9536 32.1129 75.0707 24.2864 65.3795 24.2864C64.1199 24.2864 63.0837 23.2576 63.0837 22.007C63.0837 20.7564 64.1199 19.7276 65.3795 19.7276C75.0707 19.7276 82.9536 11.9011 82.9536 2.27937C82.9536 1.02874 83.9898 0 85.2494 0C86.5091 0 87.5453 1.02874 87.5453 2.27937C87.5453 11.9011 95.4282 19.7276 105.119 19.7276C106.379 19.7276 107.415 20.7564 107.415 22.007C107.415 23.2576 106.379 24.2864 105.119 24.2864C95.4282 24.2864 87.5453 32.1129 87.5453 41.7346C87.5453 42.9852 86.5091 44.014 85.2494 44.014ZM72.8765 22.007C78.5652 24.1452 83.0959 28.6434 85.2494 34.2914C87.403 28.6434 91.9337 24.1452 97.6224 22.007C91.9337 19.8688 87.403 15.3706 85.2494 9.72261C83.0959 15.3706 78.5652 19.8688 72.8765 22.007Z" fill="#649374"/>
</g>
<defs>
<clipPath id="clip0_36_357">
<rect width="109" height="153" fill="white"/>
</clipPath>
</defs>
</svg>
