<svg width="115" height="61" viewBox="0 0 115 61" fill="none" xmlns="http://www.w3.org/2000/svg">
<g clip-path="url(#clip0_432_147)">
<path d="M9.13922 47.48H26.7792V29.96H16.6992C16.8192 22.52 18.4992 20.36 25.8192 18.32L21.4992 11.96C11.7792 15.8 9.13922 19.64 9.13922 29.96V47.48ZM33.3792 47.48H51.0192V29.96H40.9392C41.0592 22.52 42.7392 20.36 50.0592 18.32L45.7392 11.96C36.0192 15.8 33.3792 19.64 33.3792 29.96V47.48Z" fill="#649374"/>
<path d="M107.361 12.52L89.7208 12.52L89.7208 30.04L99.8008 30.04C99.6808 37.48 98.0008 39.64 90.6808 41.68L95.0008 48.04C104.721 44.2 107.361 40.36 107.361 30.04L107.361 12.52ZM83.1208 12.52L65.4808 12.52L65.4808 30.04L75.5608 30.04C75.4408 37.48 73.7608 39.64 66.4408 41.68L70.7608 48.04C80.4808 44.2 83.1208 40.36 83.1208 30.04L83.1208 12.52Z" fill="#649374"/>
</g>
<defs>
<clipPath id="clip0_432_147">
<rect width="115" height="61" fill="white"/>
</clipPath>
</defs>
</svg>
