<svg width="116" height="161" viewBox="0 0 116 161" fill="none" xmlns="http://www.w3.org/2000/svg">
<g clip-path="url(#clip0_36_312)">
<path d="M52.1733 108.08C51.2786 108.08 50.6182 108.08 49.979 108.08C47.7634 108.122 47.2308 108.613 47.2308 110.787C47.2308 123.922 47.2308 137.077 47.2308 150.211C47.2308 152.77 47.9978 155.094 49.6595 157.098C52.5781 160.595 57.3928 161.917 61.7175 160.36C65.9144 158.846 68.7052 154.902 68.7265 150.233C68.7691 142.706 68.7265 135.201 68.7265 127.674C68.7265 122.109 68.7265 116.544 68.7265 110.979C68.7265 108.613 68.1939 108.101 65.7866 108.058C65.1687 108.058 64.5296 108.058 63.8692 108.058V99.5083C90.3926 95.1373 104.432 72.8562 101.428 50.7669C98.552 29.7437 80.188 13.987 58.5006 13.7312C36.451 13.4753 16.5105 29.6158 14.2736 52.5366C12.2497 73.3466 25.7351 95.116 52.1094 99.5296C52.1094 99.9773 52.1733 100.446 52.1733 100.894C52.1733 103.197 52.1733 105.5 52.1733 108.058V108.08ZM59.8854 5.2238C59.8854 4.22168 59.9067 3.21957 59.8854 2.21745C59.8428 0.916824 59.1397 0.0639571 57.8402 0.0213137C56.4767 -0.0426513 55.5607 0.703607 55.4968 2.11084C55.4115 4.11508 55.4115 6.11931 55.4968 8.12355C55.5607 9.50946 56.3489 10.2557 57.7976 10.2131C59.2036 10.1704 59.7789 9.33889 59.8641 8.05959C59.928 7.12143 59.8641 6.18328 59.8641 5.2238H59.8854ZM22.9869 89.2952C22.4117 89.4444 22.0496 89.4444 21.8578 89.615C20.047 91.3634 18.1935 93.0904 16.5531 94.9881C16.2336 95.3719 16.5531 96.8217 17.0431 97.2482C17.5331 97.6533 18.8966 97.7599 19.344 97.3548C21.0909 95.8836 22.71 94.2418 24.2226 92.5147C24.606 92.0883 24.5847 91.0436 24.3504 90.4252C24.1373 89.8922 23.3704 89.5937 22.9656 89.2739L22.9869 89.2952ZM99.7877 96.0968C99.6598 95.4998 99.6811 95.2013 99.5533 95.052C97.7425 93.2184 95.9956 91.3207 94.0569 89.6363C93.6947 89.3378 92.2887 89.6363 91.9265 90.0841C91.5004 90.6171 91.33 91.9604 91.6922 92.3868C93.2048 94.1778 94.8878 95.8196 96.656 97.3974C97.0395 97.7386 98.062 97.7599 98.5733 97.5254C99.1485 97.2482 99.4894 96.4806 99.7877 96.0968ZM17.9805 15.9913C17.5757 16.3111 16.7875 16.6309 16.5957 17.1639C16.3614 17.7823 16.3827 18.827 16.7875 19.2535C18.2575 20.9379 19.8339 22.5796 21.5596 23.9869C22.0496 24.392 23.4556 24.2641 24.0308 23.8163C24.4995 23.4752 24.7126 21.9613 24.3504 21.5349C22.7952 19.6799 21.0057 18.0381 19.28 16.3537C19.067 16.1405 18.6196 16.1405 18.0018 15.9699L17.9805 15.9913ZM99.6811 17.6543C99.4894 17.4198 99.1912 16.6309 98.6799 16.4177C98.062 16.1831 96.9968 16.1618 96.5708 16.5456C94.8452 18.0595 93.2261 19.7012 91.6922 21.4283C91.3513 21.8334 91.33 22.8568 91.5856 23.3472C91.8413 23.8589 92.6295 24.3067 93.226 24.392C94.483 24.5839 99.6385 19.4027 99.6598 17.633L99.6811 17.6543ZM4.94248 59.1676C5.94377 59.1676 6.94506 59.2529 7.94634 59.1676C9.11806 59.061 10.2046 58.6346 10.2046 57.2061C10.2046 55.7775 9.09676 55.3298 7.92504 55.2871C5.92247 55.2018 3.9199 55.2445 1.91732 55.2871C0.745607 55.3084 0.0425768 55.9481 -3.10826e-05 57.1421C-0.021335 58.4214 0.702999 59.1037 1.93863 59.189C2.93991 59.2529 3.9412 59.189 4.94248 59.189V59.1676ZM111.143 59.1676C112.144 59.1676 113.145 59.2316 114.147 59.1676C115.297 59.0824 116 58.4001 116 57.2061C116 56.012 115.34 55.3084 114.168 55.2658C112.165 55.2018 110.163 55.2231 108.139 55.2658C106.946 55.2658 106.221 55.9907 106.179 57.1208C106.136 58.3574 106.861 59.1037 108.118 59.189C109.119 59.2529 110.12 59.189 111.121 59.189L111.143 59.1676Z" fill="white"/>
<path d="M52.1734 108.08C52.1734 105.521 52.1734 103.218 52.1734 100.915C52.1734 100.446 52.1308 99.9773 52.1095 99.5509C25.7352 95.1373 12.2498 73.3466 14.2736 52.5579C16.5106 29.6158 36.4724 13.4753 58.5006 13.7311C80.188 13.987 98.5521 29.7437 101.428 50.7669C104.453 72.8775 90.4139 95.1373 63.8692 99.5083V108.058C64.5297 108.058 65.1688 108.058 65.7866 108.058C68.1939 108.101 68.7265 108.613 68.7265 110.979C68.7265 116.544 68.7265 122.109 68.7265 127.674C68.7265 135.201 68.7478 142.706 68.7265 150.233C68.7052 154.902 65.9144 158.846 61.7175 160.36C57.4141 161.895 52.5781 160.595 49.6595 157.098C47.9978 155.115 47.2308 152.77 47.2308 150.211C47.2308 137.077 47.2308 123.922 47.2308 110.787C47.2308 108.613 47.7634 108.122 49.9791 108.08C50.6182 108.08 51.2573 108.08 52.1734 108.08ZM57.8828 95.8196C79.6768 95.8196 97.9129 78.7409 97.8916 56.7796C97.8916 34.8823 79.8259 17.8036 58.0106 17.7609C36.0676 17.7183 18.1084 35.1594 18.0657 56.7157C18.0231 78.3572 36.0889 95.7556 57.8828 95.8196ZM51.4703 112.216V142.493H64.487V112.216H51.4703ZM64.6362 146.714H51.2999C51.2999 148.036 51.2999 149.23 51.2999 150.403C51.3851 154.433 54.0268 157.013 58.0533 156.992C61.8454 156.992 64.5297 154.262 64.6362 150.36C64.6575 149.188 64.6362 147.994 64.6362 146.714ZM59.6084 108.08V99.8707H56.3063V107.909C56.7963 107.973 57.1798 108.058 57.5846 108.058C58.2237 108.08 58.8415 108.058 59.6084 108.058V108.08Z" fill="#649374"/>
<path d="M59.8853 5.2238C59.8853 6.16196 59.9279 7.12143 59.8853 8.05959C59.8001 9.31757 59.2249 10.1491 57.8188 10.2131C56.3489 10.2557 55.5606 9.50946 55.518 8.12355C55.4328 6.11931 55.4328 4.11508 55.518 2.11084C55.5819 0.703607 56.4767 -0.0426513 57.8614 0.0213137C59.1823 0.0852788 59.864 0.916824 59.9066 2.21745C59.9492 3.21957 59.9066 4.22168 59.9066 5.2238H59.8853Z" fill="#649374"/>
<path d="M22.9869 89.2952C23.3917 89.615 24.1586 89.9135 24.3717 90.4465C24.606 91.0435 24.6273 92.1096 24.2439 92.5361C22.7313 94.2631 21.1335 95.9049 19.3653 97.3761C18.8966 97.7599 17.5331 97.6746 17.0644 97.2695C16.5744 96.843 16.2336 95.3932 16.5744 95.0094C18.2148 93.0904 20.0683 91.3847 21.8791 89.6363C22.0496 89.4657 22.433 89.4657 23.0082 89.3165L22.9869 89.2952Z" fill="#649374"/>
<path d="M99.7876 96.0968C99.4894 96.4806 99.1485 97.2482 98.5733 97.5254C98.062 97.7812 97.0394 97.7599 96.6559 97.3974C94.909 95.8409 93.2047 94.1992 91.6921 92.3868C91.3299 91.9391 91.5004 90.6171 91.9265 90.0841C92.2886 89.615 93.6947 89.3165 94.0568 89.6363C95.9955 91.3208 97.7637 93.2184 99.5533 95.052C99.6811 95.2013 99.6598 95.4998 99.7876 96.0968Z" fill="#649374"/>
<path d="M17.9804 15.9912C18.5983 16.1618 19.0456 16.1618 19.2587 16.375C21.0056 18.0594 22.7738 19.7012 24.329 21.5562C24.6912 21.9826 24.4568 23.4752 24.0095 23.8376C23.4343 24.2641 22.0495 24.4133 21.5382 24.0082C19.8126 22.601 18.2361 20.9592 16.7661 19.2748C16.3826 18.827 16.3613 17.7823 16.5744 17.1853C16.7661 16.6522 17.5544 16.3324 17.9591 16.0126L17.9804 15.9912Z" fill="#649374"/>
<path d="M99.6811 17.6543C99.6598 19.424 94.4829 24.6052 93.2473 24.4133C92.6295 24.328 91.8626 23.8803 91.6069 23.3685C91.3513 22.8568 91.3513 21.8334 91.7134 21.4496C93.226 19.7225 94.8451 18.0808 96.592 16.5669C97.0394 16.1831 98.0833 16.2045 98.7011 16.439C99.2337 16.6522 99.532 17.4411 99.7024 17.6757L99.6811 17.6543Z" fill="#649374"/>
<path d="M4.94248 59.1676C3.9412 59.1676 2.93991 59.2103 1.93863 59.1676C0.702999 59.0824 -0.021335 58.4001 -3.10826e-05 57.1208C0.0212729 55.9267 0.745607 55.2871 1.91732 55.2658C3.9199 55.2231 5.92247 55.2018 7.92504 55.2658C9.09676 55.3084 10.2046 55.7562 10.2046 57.1847C10.2046 58.6133 9.11806 59.0397 7.94634 59.1463C6.96636 59.2529 5.94377 59.1463 4.94248 59.1676Z" fill="#649374"/>
<path d="M111.121 59.1677C110.12 59.1677 109.119 59.2103 108.118 59.1677C106.861 59.0824 106.115 58.3361 106.179 57.0995C106.221 55.9694 106.946 55.2658 108.139 55.2445C110.141 55.2231 112.144 55.2018 114.168 55.2445C115.34 55.2871 116.021 55.9907 116 57.1847C116 58.3788 115.297 59.0397 114.147 59.1463C113.145 59.2316 112.144 59.1463 111.143 59.1463L111.121 59.1677Z" fill="#649374"/>
<path d="M57.8828 95.7983C36.1102 95.7343 18.0231 78.3358 18.0657 56.6943C18.1084 35.1381 36.0889 17.7183 58.0107 17.7396C79.8259 17.7609 97.8703 34.8609 97.8916 56.7583C97.8916 78.7409 79.6768 95.7983 57.8828 95.7983ZM93.7587 58.528C93.7587 49.8287 92.1183 44.3917 88.3475 38.6349C79.6555 25.3515 67.214 20.2982 51.7899 22.3877C45.5905 23.2406 39.9236 25.8419 35.0663 29.9356C33.9798 30.8524 33.4472 31.9185 34.4485 33.1339C35.4072 34.2852 36.4724 33.9014 37.5589 33.0912C39.0288 32.0251 40.5414 31.0017 42.1179 30.0849C49.1056 26.0551 56.6259 24.7971 64.4871 26.5241C79.9324 29.9356 86.8136 40.4259 89.4127 52.7498C90.1796 56.3958 89.7322 60.0205 88.7096 63.7092C85.9401 73.5811 80.3159 80.8305 70.8143 85.0095C58.8628 90.2973 44.7809 87.5468 35.7906 78.8475C24.8404 68.2293 23.4343 51.2573 32.3607 38.6562C33.1916 37.4835 33.7455 36.3748 32.4033 35.2447C31.3807 34.3705 30.1664 34.669 29.1864 36.2255C27.546 38.7841 25.6287 41.3001 24.5848 44.1145C21.2187 53.2615 21.0909 62.3446 25.65 71.2997C33.1276 85.9263 45.1644 92.5574 61.3128 91.4273C74.3508 90.5105 83.7245 83.4317 90.0518 72.2591C92.7361 67.5044 93.7587 62.1953 93.7161 58.5067L93.7587 58.528ZM57.8402 75.3508C59.1398 75.2229 60.4393 75.2229 61.6962 74.9244C71.5174 72.7069 78.5477 66.5663 84.2784 58.6559C84.6619 58.1229 84.5341 56.737 84.108 56.1186C79.5489 49.6795 73.7756 44.6262 66.4683 41.5133C61.6323 39.4451 56.6259 39.0187 51.5982 40.767C43.2257 43.6881 36.8132 49.1678 31.6577 56.2679C30.8907 57.3126 31.2529 58.2295 31.9346 59.1676C36.1954 65.0098 41.5001 69.5726 47.9552 72.8135C51.0443 74.37 54.3251 75.3082 57.8402 75.3295V75.3508Z" fill="white"/>
<path d="M51.4916 112.195H64.5083V142.471H51.4916V112.195ZM56.8389 131.256C56.8389 129.124 56.8389 126.992 56.8389 124.86C56.8389 123.538 56.2637 122.578 54.9428 122.557C53.5368 122.536 52.8763 123.453 52.8763 124.881C52.8763 129.145 52.8763 133.41 52.8763 137.653C52.8763 138.975 53.4515 139.892 54.7937 139.934C56.2424 139.977 56.8602 139.039 56.8389 137.631C56.8389 135.499 56.8389 133.367 56.8389 131.235V131.256ZM52.8763 116.928C52.8763 117.738 52.8763 118.079 52.8763 118.442C52.9189 119.764 53.5794 120.595 54.9002 120.595C56.1358 120.595 56.775 119.764 56.8176 118.527C56.8389 117.717 57.0519 116.779 56.7323 116.097C56.3915 115.372 55.5819 114.519 54.9002 114.433C54.3037 114.369 53.4941 115.222 52.9829 115.841C52.7059 116.161 52.8763 116.864 52.8763 116.928Z" fill="white"/>
<path d="M64.6575 146.714C64.6575 147.994 64.6788 149.188 64.6575 150.36C64.5723 154.262 61.8667 156.992 58.0746 156.992C54.0481 156.992 51.4065 154.433 51.3212 150.403C51.2999 149.23 51.3212 148.036 51.3212 146.714H64.6575Z" fill="white"/>
<path d="M59.6297 108.058C58.8628 108.058 58.2237 108.058 57.6059 108.058C57.2011 108.058 56.8176 107.973 56.3276 107.909V99.8707H59.6297V108.08V108.058Z" fill="white"/>
<path d="M93.78 58.528C93.8013 62.238 92.8 67.5258 90.1157 72.2805C83.7884 83.4744 74.4147 90.5532 61.3766 91.4487C45.2496 92.5787 33.1915 85.9477 25.7138 71.321C21.1335 62.3659 21.2613 53.2829 24.6486 44.1359C25.6925 41.3214 27.6099 38.8268 29.2503 36.2469C30.2516 34.6691 31.4446 34.3919 32.4672 35.2661C33.788 36.3961 33.2554 37.4835 32.4246 38.6775C23.4982 51.2786 24.9043 68.2507 35.8545 78.8689C44.8448 87.5681 58.9267 90.3186 70.8782 85.0309C80.3585 80.8305 86.004 73.5811 88.7735 63.7305C89.8174 60.0632 90.2435 56.4172 89.4765 52.7712C86.8988 40.4472 80.0176 29.957 64.5509 26.5455C56.6898 24.8184 49.1695 26.0764 42.1818 30.1062C40.6053 31.023 39.0927 32.0252 37.6227 33.1126C36.5362 33.9015 35.471 34.3066 34.5124 33.1552C33.4898 31.9399 34.0224 30.8738 35.1302 29.957C39.9875 25.8632 45.6543 23.2406 51.8538 22.4091C67.2778 20.2982 79.7193 25.3728 88.4114 38.6562C92.1822 44.4131 93.8226 49.8501 93.8226 58.5493L93.78 58.528Z" fill="#649374"/>
<path d="M57.8615 75.3508C54.3464 75.3508 51.0656 74.3913 47.9765 72.8348C41.5214 69.5939 36.2167 65.0311 31.9559 59.189C31.2742 58.2508 30.912 57.334 31.679 56.2892C36.8345 49.1891 43.247 43.7094 51.6195 40.7883C56.6259 39.04 61.6323 39.4664 66.4896 41.5346C73.7969 44.6476 79.5703 49.7008 84.1293 56.14C84.5554 56.737 84.7045 58.1229 84.2997 58.6772C78.569 66.5876 71.5387 72.7282 61.7176 74.9457C60.4606 75.2229 59.1398 75.2229 57.8615 75.3721V75.3508ZM35.6628 57.3766C38.9223 61.8328 42.9701 65.0524 47.3161 67.9095C50.3626 69.9138 53.7286 71.3423 57.4142 71.257C67.5975 71.0438 74.0738 64.6047 80.2946 57.6325C76.0338 52.0462 70.9635 47.9311 64.8279 45.1806C61.5045 43.6881 57.9681 43.3469 54.4316 44.1785C46.4213 46.0548 41.0101 51.6411 35.6628 57.3766Z" fill="#649374"/>
<path d="M56.8389 131.256C56.8389 133.388 56.8389 135.521 56.8389 137.653C56.8389 139.06 56.2424 140.019 54.7937 139.955C53.4515 139.913 52.8763 138.996 52.8763 137.674C52.8763 133.41 52.8763 129.145 52.8763 124.902C52.8763 123.474 53.5368 122.536 54.9428 122.578C56.2637 122.6 56.8602 123.559 56.8389 124.881C56.8389 127.013 56.8389 129.145 56.8389 131.278V131.256Z" fill="#649374"/>
<path d="M52.8763 116.928C52.8763 116.928 52.7059 116.161 52.9829 115.841C53.4942 115.222 54.3037 114.369 54.9002 114.433C55.5819 114.519 56.4128 115.372 56.7324 116.097C57.0519 116.779 56.8389 117.717 56.8176 118.527C56.775 119.764 56.1358 120.574 54.9002 120.595C53.5794 120.595 52.8976 119.764 52.8763 118.442C52.8763 118.101 52.8763 117.738 52.8763 116.928Z" fill="#649374"/>
<path d="M35.6628 57.3766C41.0314 51.6411 46.4426 46.0761 54.4316 44.1785C57.9681 43.347 61.5045 43.6881 64.8279 45.1806C70.9848 47.9311 76.0551 52.0462 80.2946 57.6325C74.0739 64.6047 67.5975 71.0438 57.4142 71.257C53.7073 71.3423 50.3626 69.9138 47.3161 67.9095C42.9701 65.0524 38.9223 61.8542 35.6628 57.3766ZM57.8616 70.5534C65.3179 70.5961 71.1978 64.8819 71.2404 57.6112C71.283 50.4471 65.4245 44.541 58.2024 44.4557C50.7673 44.3704 44.7383 50.2339 44.7383 57.5472C44.7383 64.7539 50.5756 70.5321 57.8829 70.5747L57.8616 70.5534Z" fill="white"/>
<path d="M57.8615 70.5534C50.5542 70.5108 44.7169 64.7326 44.7169 57.5259C44.7169 50.2125 50.7459 44.3491 58.181 44.4344C65.4244 44.5196 71.2616 50.4258 71.219 57.5898C71.1764 64.8605 65.2752 70.5747 57.8401 70.5321L57.8615 70.5534ZM67.1713 57.4832C67.15 52.366 63.1661 48.4855 57.9893 48.5068C52.7698 48.5068 48.8286 52.3873 48.8073 57.4832C48.8073 62.6431 52.8337 66.6302 58.0958 66.6089C63.1874 66.6089 67.2139 62.5578 67.1926 57.4832H67.1713Z" fill="#649374"/>
<path d="M67.1713 57.4832C67.1926 62.5578 63.1661 66.6089 58.0745 66.6089C52.8124 66.6089 48.7647 62.6431 48.786 57.4832C48.786 52.366 52.7485 48.5068 57.968 48.5068C63.1661 48.5068 67.1287 52.366 67.15 57.4832H67.1713Z" fill="white"/>
</g>
<defs>
<clipPath id="clip0_36_312">
<rect width="116" height="161" fill="white"/>
</clipPath>
</defs>
</svg>
