<svg width="139" height="97" viewBox="0 0 139 97" fill="none" xmlns="http://www.w3.org/2000/svg">
<path d="M138.076 49.9573C137.623 49.1478 137.01 48.4405 136.277 47.8791C135.544 47.3178 134.705 46.9141 133.811 46.6929C127.789 45.2156 121.53 45.0171 115.428 46.11C118.022 34.5679 116.35 25.5325 114.622 20.2861C114.102 18.6353 112.994 17.2386 111.515 16.3663C110.035 15.4939 108.288 15.2082 106.612 15.5643C100.667 16.9254 95.046 19.4611 90.0727 23.0258C86.5549 14.4923 80.8933 7.03695 73.6491 1.39904C72.4521 0.490909 70.9962 0 69.5 0C68.0038 0 66.5479 0.490909 65.3509 1.39904C58.1067 7.03695 52.4451 14.4923 48.9273 23.0258C43.954 19.4611 38.3334 16.9254 32.3885 15.5643C30.7123 15.2082 28.9652 15.4939 27.4854 16.3663C26.0056 17.2386 24.8984 18.6353 24.3784 20.2861C22.6496 25.5325 20.9784 34.5679 23.5716 46.11C17.47 45.0171 11.2107 45.2156 5.18873 46.6929C4.29541 46.9141 3.45627 47.3178 2.72291 47.8791C1.98955 48.4405 1.37749 49.1478 0.924359 49.9573C0.0106286 51.5851 -0.237553 53.5099 0.23284 55.3203C2.19214 62.3155 8.18531 75.723 26.3377 86.3323C44.4901 96.9417 60.7984 97 69.5 97C78.2016 97 94.3947 97 112.662 86.3323C130.93 75.6647 136.808 62.3155 138.767 55.3203C139.238 53.5099 138.989 51.5851 138.076 49.9573ZM107.591 20.1695C108.14 20.0395 108.718 20.1232 109.209 20.404C109.7 20.6847 110.069 21.1421 110.242 21.6851C111.913 26.9315 113.584 36.2584 110.069 48.2668C110.011 48.3834 110.011 48.5 109.954 48.6166C108.572 53.2297 106.637 57.6541 104.191 61.7909C99.2607 70.339 92.6984 77.8095 84.8863 83.7674L83.4456 84.8167C89.2659 77.0637 94.8557 65.1719 94.8557 48.0337C94.9139 41.0693 93.8631 34.1409 91.7439 27.5144C96.4489 23.9524 101.852 21.4482 107.591 20.1695ZM68.117 5.12981C68.516 4.8271 69.0013 4.66346 69.5 4.66346C69.9987 4.66346 70.484 4.8271 70.883 5.12981C76.7033 9.5601 90.2456 22.5012 90.2456 48.0337C90.2456 61.4994 86.5575 73.0415 79.3541 82.4267C76.5863 86.1007 73.2603 89.3077 69.5 91.9285C65.7397 89.3077 62.4137 86.1007 59.6459 82.4267C52.4425 73.0415 48.7544 61.4994 48.7544 48.0337C48.7544 22.5012 62.2967 9.5601 68.117 5.12981ZM28.758 21.6851C28.9312 21.1421 29.2999 20.6847 29.791 20.404C30.2821 20.1232 30.8596 20.0395 31.4088 20.1695C37.1481 21.4482 42.5511 23.9524 47.2561 27.5144C45.1369 34.1409 44.0861 41.0693 44.1443 48.0337C44.1443 65.1719 49.7341 77.0637 55.5544 84.8167L54.1137 83.7674C46.3016 77.8095 39.7393 70.339 34.8088 61.7909C32.3619 57.6341 30.4266 53.1903 29.0461 48.5583L28.9309 48.2668C25.4157 36.2584 27.0868 26.9315 28.758 21.6851ZM4.67009 54.0379C4.59137 53.7455 4.57122 53.4402 4.6108 53.1399C4.65039 52.8396 4.74891 52.5503 4.90059 52.2891C5.2195 51.7677 5.70884 51.3759 6.28363 51.1815C12.4242 49.7456 18.8054 49.7256 24.9546 51.1232C26.4493 55.6466 28.3997 60.0026 30.7749 64.1226C38.2088 77.1803 49.0426 86.5072 57.8018 91.8702C47.5137 90.851 37.5659 87.5895 28.6427 82.3101C11.8734 72.5168 6.45651 60.3918 4.67009 54.0379ZM134.33 54.0379C132.543 60.3918 127.127 72.5168 110.357 82.3101C101.434 87.5895 91.4863 90.851 81.1982 91.8702C89.9574 86.5072 100.791 77.1803 108.225 64.1226C110.6 60.0026 112.551 55.6466 114.045 51.1232C120.195 49.7256 126.576 49.7456 132.716 51.1815C133.291 51.3759 133.781 51.7677 134.099 52.2891C134.251 52.5503 134.35 52.8396 134.389 53.1399C134.429 53.4402 134.409 53.7455 134.33 54.0379Z" fill="#649374"/>
</svg>
