<svg width="125" height="167" viewBox="0 0 125 167" fill="none" xmlns="http://www.w3.org/2000/svg">
<g clip-path="url(#clip0_73_121)">
<path d="M62.5 28.5759C61.2758 28.5759 60.2878 27.5906 60.2878 26.3695C60.2878 20.9286 55.842 16.4944 50.3866 16.4944C49.1624 16.4944 48.1744 15.509 48.1744 14.288C48.1744 13.067 49.1624 12.0816 50.3866 12.0816C55.842 12.0816 60.2878 7.64738 60.2878 2.20639C60.2878 0.985377 61.2758 0 62.5 0C63.7243 0 64.7122 0.985377 64.7122 2.20639C64.7122 7.64738 69.1581 12.0816 74.6134 12.0816C75.8377 12.0816 76.8256 13.067 76.8256 14.288C76.8256 15.509 75.8377 16.4944 74.6134 16.4944C69.1581 16.4944 64.7122 20.9286 64.7122 26.3695C64.7122 27.5906 63.7243 28.5759 62.5 28.5759ZM56.9158 14.288C59.2784 15.5518 61.2114 17.5012 62.5 19.8575C63.7672 17.5012 65.7217 15.5732 68.0842 14.288C65.7217 13.0241 63.7887 11.0748 62.5 8.71845C61.2329 11.0748 59.2784 13.0027 56.9158 14.288Z" fill="#649374"/>
<path d="M8.33338 167C6.78699 167 5.13321 166.55 3.37204 165.393C3.2217 165.308 3.09283 165.179 2.98544 165.051C0.837678 162.566 -0.214727 159.395 0.021527 156.139C0.257781 152.862 1.76122 149.884 4.25263 147.764L44.5447 115.718L43.7501 92.5183C43.5997 88.4054 40.1418 85.0637 36.0181 85.0637H4.68218C2.19077 85.0637 0.107438 83.0716 0.0644823 80.6295C-0.0214283 76.2596 3.30761 72.4466 7.68905 71.9968L50.2793 67.5412C46.4133 63.771 44.1581 58.5871 44.1581 53.0176C44.1581 47.448 46.6495 41.6857 50.988 37.8299C55.3265 33.9741 61.1684 32.1533 66.9674 32.8387C75.9665 33.8884 83.226 40.8503 84.622 49.7401C85.6745 56.4235 83.3549 63.0213 78.6942 67.5626L117.676 72.5752C121.993 73.1321 125.15 76.8166 125 81.1651C124.914 83.9498 122.616 86.2205 119.674 86.1348L84.7939 85.7278C83.8488 85.7921 83.0327 86.6703 83.0327 87.72L83.72 108.049L101.31 115.396C106.701 117.624 110.202 122.829 110.202 128.656L111.125 151.213C111.19 152.926 111.04 154.554 110.631 156.032C109.558 160.081 108.097 161.645 106.1 163.401C104.038 165.222 101.289 166.057 98.5825 165.693C96.0267 165.351 93.8574 164.022 92.4829 161.923C91.4949 160.402 91.2586 157.725 91.2586 156.889L90.915 135.832C90.915 133.604 89.2612 131.805 87.0705 131.591L65.421 128.42C62.2423 128.12 56.8944 132.276 54.2956 134.268L17.311 162.523C17.0748 162.716 16.7956 162.93 16.4949 163.166C14.8411 164.537 11.9416 166.936 8.33338 166.936V167ZM5.73459 162.33C8.78441 164.194 11.2973 162.502 14.0035 160.252C14.3471 159.974 14.6478 159.717 14.927 159.503L51.9116 131.248C56.3789 127.842 61.4906 124.243 65.8506 124.65L87.5001 127.821C91.5808 128.206 94.7595 131.655 94.7595 135.853L95.1031 156.911C95.1031 157.939 95.4468 159.481 95.683 159.845C96.4348 160.981 97.6375 161.73 99.055 161.902C100.644 162.095 102.298 161.602 103.501 160.531C105.09 159.117 106.035 158.153 106.851 155.068C107.152 153.954 107.259 152.712 107.217 151.384L106.293 128.742C106.293 124.393 103.737 120.58 99.7853 118.952L81.0353 111.112C80.348 110.812 79.8755 110.148 79.854 109.398L79.1238 87.7628C79.1238 84.5925 81.5507 82.0219 84.665 81.8505L119.674 82.2576C120.404 82.2576 121.048 81.6792 121.07 81.0151C121.156 78.6802 119.437 76.6666 117.118 76.3667L77.0834 71.2256H72.9167C72.0147 71.2256 71.2415 70.6258 71.0482 69.7475C70.8334 68.8907 71.2415 67.991 72.0361 67.584C78.3506 64.3065 81.8514 57.3661 80.7346 50.3185C79.6178 43.228 73.604 37.4657 66.4519 36.6303C61.6624 36.0733 57.0447 37.5086 53.4794 40.6789C49.9571 43.8064 47.9382 48.2835 47.9382 52.9747C47.9382 59.144 51.3531 64.735 56.8514 67.584C57.6461 67.991 58.0542 68.8907 57.8394 69.7475C57.6246 70.6044 56.8514 71.2256 55.9708 71.2256H51.5894L8.0327 75.7883C5.60572 76.0454 3.82307 78.0804 3.86603 80.501C3.86603 80.8438 4.23115 81.1437 4.61775 81.1437H35.9751C42.1607 81.1437 47.3583 86.1562 47.5731 92.3255L48.3892 116.489C48.3892 117.088 48.1315 117.688 47.659 118.052L6.74404 150.72C5.09026 152.134 4.05933 154.19 3.88751 156.418C3.73716 158.56 4.38149 160.659 5.73459 162.33Z" fill="#649374"/>
</g>
<defs>
<clipPath id="clip0_73_121">
<rect width="125" height="167" fill="white"/>
</clipPath>
</defs>
</svg>
