<svg width="38" height="38" viewBox="0 0 38 38" fill="none" xmlns="http://www.w3.org/2000/svg">
<path d="M19.1078 0.113037C14.0036 0.113037 13.3604 0.141248 11.3607 0.22588C9.36098 0.324618 7.99057 0.634936 6.80194 1.10041C5.57136 1.58 4.52256 2.22884 3.47377 3.28675C2.42498 4.34465 1.78172 5.40255 1.30627 6.64382C0.844803 7.85689 0.52317 9.22511 0.439266 11.2422C0.341379 13.2592 0.327393 13.9081 0.327393 19.0566C0.327393 24.205 0.355363 24.8539 0.439266 26.8709C0.52317 28.888 0.844803 30.2703 1.30627 31.4693C1.78172 32.7106 2.42498 33.7685 3.47377 34.8264C4.52256 35.8843 5.57136 36.5331 6.80194 37.0127C8.00455 37.4782 9.36098 37.8026 11.3607 37.8872C13.3604 37.9719 14.0036 38.0001 19.1078 38.0001C24.2119 38.0001 24.8551 37.9719 26.8548 37.8872C28.8545 37.7885 30.2249 37.4782 31.4136 37.0127C32.6442 36.5331 33.6929 35.8843 34.7417 34.8264C35.7905 33.7685 36.4338 32.7106 36.9092 31.4693C37.3707 30.2562 37.6923 28.888 37.7762 26.8709C37.8741 24.8539 37.8881 24.205 37.8881 19.0566C37.8881 13.9081 37.8601 13.2592 37.7762 11.2422C37.6783 9.22511 37.3707 7.84278 36.9092 6.64382C36.4338 5.40255 35.7905 4.34465 34.7417 3.28675C33.6929 2.22884 32.6442 1.58 31.4136 1.10041C30.211 0.634936 28.8545 0.310512 26.8548 0.22588C24.8551 0.127142 24.2119 0.113037 19.1078 0.113037ZM19.1078 3.52654C24.128 3.52654 24.7153 3.54064 26.701 3.63938C28.5329 3.72401 29.5257 4.03433 30.197 4.28823C31.078 4.62676 31.7072 5.03581 32.3645 5.71287C33.0217 6.37582 33.4272 7.01056 33.7768 7.8992C34.0286 8.56216 34.3362 9.57774 34.4201 11.4255C34.504 13.4285 34.532 14.0209 34.532 19.0848C34.532 24.1486 34.518 24.741 34.4201 26.744C34.3362 28.5918 34.0286 29.5933 33.7768 30.2703C33.4412 31.159 33.0357 31.7796 32.3645 32.4567C31.7072 33.1196 31.078 33.5287 30.197 33.8813C29.5397 34.1352 28.5329 34.4455 26.701 34.5301C24.7153 34.6148 24.128 34.643 19.1078 34.643C14.0875 34.643 13.5002 34.6289 11.5145 34.5301C9.68261 34.4455 8.68976 34.1352 8.01853 33.8813C7.13754 33.5428 6.52225 33.1337 5.86501 32.4567C5.20777 31.7937 4.80224 31.159 4.45265 30.2703C4.20094 29.6074 3.89328 28.5918 3.80938 26.744C3.72547 24.741 3.69751 24.1486 3.69751 19.0848C3.69751 14.0209 3.71149 13.4285 3.80938 11.4255C3.89328 9.57774 4.20094 8.57626 4.45265 7.8992C4.78826 7.01056 5.20777 6.37582 5.86501 5.71287C6.52225 5.04992 7.15153 4.64086 8.01853 4.28823C8.67577 4.03433 9.68261 3.72401 11.5145 3.63938C13.4862 3.54064 14.0875 3.52654 19.1078 3.52654Z" fill="white"/>
<path d="M19.1077 25.3899C15.6397 25.3899 12.843 22.5688 12.843 19.0707C12.843 15.5726 15.6537 12.7515 19.1077 12.7515C22.5757 12.7515 25.3725 15.5867 25.3725 19.0707C25.3725 22.5688 22.5618 25.3899 19.1077 25.3899ZM19.1077 9.33801C13.7799 9.33801 9.45886 13.6966 9.45886 19.0707C9.45886 24.4449 13.7799 28.8034 19.1077 28.8034C24.4356 28.8034 28.7566 24.4449 28.7566 19.0707C28.7566 13.6966 24.4356 9.33801 19.1077 9.33801Z" fill="white"/>
</svg>
