<svg width="40" height="40" viewBox="0 0 40 40" fill="none" xmlns="http://www.w3.org/2000/svg">
<path d="M23.7461 9.78585C24.0156 10.0554 24.1504 10.3744 24.1504 10.7431C24.1504 11.1111 24.0156 11.4298 23.7461 11.6993L15.8497 19.5958L23.7731 27.5192C24.0246 27.7707 24.1504 28.0851 24.1504 28.4624C24.1504 28.8398 24.0156 29.1632 23.7461 29.4327C23.4766 29.7022 23.1575 29.8369 22.7889 29.8369C22.4209 29.8369 22.1022 29.7022 21.8327 29.4327L12.7773 20.3504C12.6695 20.2426 12.593 20.1258 12.5477 20C12.5032 19.8743 12.4809 19.7395 12.4809 19.5958C12.4809 19.452 12.5032 19.3173 12.5477 19.1915C12.593 19.0658 12.6695 18.949 12.7773 18.8412L21.8596 9.7589C22.1111 9.50736 22.4209 9.38159 22.7889 9.38159C23.1575 9.38159 23.4766 9.51634 23.7461 9.78585Z" fill="#1E1E1E"/>
<path d="M0.999999 20C0.999999 30.4934 9.50659 39 20 39C30.4934 39 39 30.4934 39 20C39 9.50659 30.4934 1 20 0.999999C9.50659 0.999999 1 9.50659 0.999999 20Z" stroke="#1E1E1E" stroke-width="2" stroke-linecap="round" stroke-linejoin="round"/>
</svg>
