<svg width="46" height="44" viewBox="0 0 46 44" fill="none" xmlns="http://www.w3.org/2000/svg">
<g filter="url(#filter0_d_1_118)">
<path d="M37.5833 0.25C38.6884 0.25 39.7482 0.688987 40.5296 1.47039C41.311 2.25179 41.75 3.3116 41.75 4.41667V33.5833C41.75 34.6884 41.311 35.7482 40.5296 36.5296C39.7482 37.311 38.6884 37.75 37.5833 37.75H8.41667C7.3116 37.75 6.25179 37.311 5.47039 36.5296C4.68899 35.7482 4.25 34.6884 4.25 33.5833V4.41667C4.25 3.3116 4.68899 2.25179 5.47039 1.47039C6.25179 0.688987 7.3116 0.25 8.41667 0.25H37.5833ZM36.5417 32.5417V21.5C36.5417 19.6987 35.8261 17.9713 34.5524 16.6976C33.2787 15.4239 31.5513 14.7083 29.75 14.7083C27.9792 14.7083 25.9167 15.7917 24.9167 17.4167V15.1042H19.1042V32.5417H24.9167V22.2708C24.9167 20.6667 26.2083 19.3542 27.8125 19.3542C28.586 19.3542 29.3279 19.6615 29.8749 20.2084C30.4219 20.7554 30.7292 21.4973 30.7292 22.2708V32.5417H36.5417ZM12.3333 11.8333C13.2616 11.8333 14.1518 11.4646 14.8082 10.8082C15.4646 10.1518 15.8333 9.26159 15.8333 8.33333C15.8333 6.39583 14.2708 4.8125 12.3333 4.8125C11.3996 4.8125 10.504 5.18344 9.84373 5.84373C9.18344 6.50401 8.8125 7.39955 8.8125 8.33333C8.8125 10.2708 10.3958 11.8333 12.3333 11.8333ZM15.2292 32.5417V15.1042H9.45833V32.5417H15.2292Z" fill="white"/>
</g>
<defs>
<filter id="filter0_d_1_118" x="0.25" y="0.25" width="45.5" height="45.5" filterUnits="userSpaceOnUse" color-interpolation-filters="sRGB">
<feFlood flood-opacity="0" result="BackgroundImageFix"/>
<feColorMatrix in="SourceAlpha" type="matrix" values="0 0 0 0 0 0 0 0 0 0 0 0 0 0 0 0 0 0 127 0" result="hardAlpha"/>
<feOffset dy="4"/>
<feGaussianBlur stdDeviation="2"/>
<feComposite in2="hardAlpha" operator="out"/>
<feColorMatrix type="matrix" values="0 0 0 0 0 0 0 0 0 0 0 0 0 0 0 0 0 0 0.25 0"/>
<feBlend mode="normal" in2="BackgroundImageFix" result="effect1_dropShadow_1_118"/>
<feBlend mode="normal" in="SourceGraphic" in2="effect1_dropShadow_1_118" result="shape"/>
</filter>
</defs>
</svg>
