<svg width="117" height="36" viewBox="0 0 117 36" fill="none" xmlns="http://www.w3.org/2000/svg">
<g clip-path="url(#clip0_27_461)">
<path d="M4.60092 14.7166C4.54589 14.5772 4.4802 14.4107 4.40586 14.2216C4.11326 12.732 4.06284 11.2791 4.25462 9.8628C4.47294 8.28222 4.95049 6.8597 5.68729 5.59524C6.42409 4.33078 7.40649 3.31921 8.63449 2.56054C9.8352 1.80186 11.2133 1.42252 12.7688 1.42252C14.0241 1.42252 15.02 1.78606 15.7568 2.51312C16.4937 3.2718 17.053 4.20433 17.4352 5.31073C17.7899 6.41714 18.0218 7.60258 18.1311 8.86703C18.2129 10.1631 18.2538 11.3643 18.2538 12.4708C18.2538 14.652 18.1311 16.9438 17.8854 19.3463C17.6126 21.7487 17.3123 24.0406 16.9849 26.2218C16.6301 28.4029 16.289 30.3629 15.9615 32.1016C15.6341 33.8401 15.3658 35.1089 15.2294 35.994H20.5475H25.9141C26.1324 34.698 26.3177 33.1604 26.4814 31.2954C26.6451 29.4619 26.727 27.4546 26.727 25.2734C26.727 23.598 26.6588 21.8119 26.5223 19.9153C26.3859 18.0186 26.1539 16.1377 25.8265 14.2726C25.4717 12.4075 24.9805 10.6057 24.3529 8.86703C23.7475 7.22078 22.99 5.75093 22.0801 4.45748C22.6877 3.7084 23.4089 3.07608 24.2433 2.56054C25.444 1.80186 26.8221 1.42252 28.3775 1.42252C29.6328 1.42252 30.6289 1.78606 31.3657 2.51312C32.1025 3.2718 32.6619 4.20433 33.0439 5.31073C33.3987 6.41714 33.6307 7.60258 33.7398 8.86703C33.8216 10.1631 33.8626 11.3643 33.8626 12.4708C33.8626 14.652 33.7398 16.9438 33.4942 19.3463C33.2213 21.7487 32.9211 24.0406 32.5937 26.2218C32.2389 28.4029 31.8978 30.3629 31.5704 32.1016C31.2428 33.8401 31.0302 35.1089 30.8937 35.994H41.507C41.7253 34.698 41.9264 33.1604 42.0902 31.2954C42.2539 29.4619 42.3358 27.4546 42.3358 25.2734C42.3358 23.598 42.2675 21.8119 42.1311 19.9153C41.9946 18.0186 41.7628 16.1377 41.4352 14.2726C41.0805 12.4075 40.5893 10.6057 39.9616 8.86703C39.334 7.16002 38.5426 5.64266 37.5875 4.31497C36.6051 3.0189 35.4317 1.97572 34.0672 1.18543C32.7028 0.395144 31.0928 1.87922e-07 29.2371 0C27.6816 0 26.2627 0.268697 24.9801 0.806092C23.6975 1.3751 22.5922 2.13378 21.6645 3.08213C21.5385 3.2152 21.4163 3.35148 21.2978 3.49096C20.4671 2.56919 19.5207 1.80067 18.4585 1.18543C17.0941 0.395144 15.484 1.87922e-07 13.6283 0C12.0729 0 10.6539 0.268697 9.37129 0.806092C8.08872 1.3751 6.98351 2.13378 6.0557 3.08213C5.12788 4.06208 4.40472 5.21591 3.88623 6.54359C3.40058 7.81679 3.13041 9.18707 3.0757 10.6544L3.085 10.7835C2.38559 8.90918 1.69626 6.94742 1.51367 6.03227C1.13525 4.32524 0.946043 2.47597 0.946043 0.484444H2.94963e-06L0 36H12.2985C12.2985 33.8188 12.062 31.7957 11.589 29.9306C11.0845 28.0655 10.4538 26.2794 9.69694 24.5724C8.94012 22.8971 8.12021 21.269 7.23723 19.6884C6.32273 18.1079 5.45551 16.4798 4.63562 14.8045C4.63574 14.7982 4.63584 14.7918 4.63593 14.7853L4.62984 14.7835L4.63562 14.8045L4.62703 14.7827L4.61951 14.7805L4.60092 14.7166Z" fill="#1E1E1E"/>
<path d="M78.9508 35.9941H78.0105V0.484497L90.3091 0.484498C90.3091 3.01342 90.0252 5.32106 89.4576 7.40743C88.8901 9.49378 88.1962 11.4695 87.3764 13.3346C86.5249 15.1996 85.6103 16.9857 84.6328 18.6927C83.6552 20.3998 82.7565 22.1542 81.9366 23.956C81.0852 25.7579 80.3756 27.6388 79.808 29.5988C79.2403 31.5586 78.9508 33.6549 78.9508 35.9941Z" fill="#1E1E1E"/>
<path fill-rule="evenodd" clip-rule="evenodd" d="M70.2569 10.466L70.2343 10.7809C70.9334 8.90736 71.6222 6.94699 71.8046 6.03227C72.1831 4.32524 72.3723 2.47597 72.3723 0.484444H73.3183V36L61.014 35.994C61.014 33.8129 61.2563 31.7957 61.7293 29.9306C62.2338 28.0655 62.8645 26.2794 63.6214 24.5724C64.3782 22.8971 65.1982 21.269 66.0811 19.6884C66.5632 18.8552 67.0321 18.0089 67.4879 17.1493H55.242C55.2944 17.871 55.3587 18.6034 55.4347 19.3463C55.7075 21.7487 56.0077 24.0406 56.3351 26.2218C56.6898 28.4029 57.031 30.3629 57.3585 32.1016C57.6859 33.8401 57.9112 35.1089 58.0477 35.994H47.3802C47.1619 34.698 47.0024 33.1604 46.8386 31.2954C46.6748 29.4619 46.593 27.4546 46.593 25.2734C46.593 23.598 46.6612 21.8119 46.7977 19.9153C46.9341 18.0186 47.1661 16.1377 47.4935 14.2726C47.8483 12.4075 48.3395 10.6057 48.9671 8.86703C49.5948 7.16002 50.3862 5.64266 51.3413 4.31497C52.3236 3.0189 53.4971 1.97572 54.8615 1.18543C56.226 0.395144 57.836 1.87922e-07 59.6916 0C61.2471 0 62.6662 0.268697 63.9487 0.806092C65.2313 1.3751 66.3365 2.13378 67.2643 3.08213C68.1922 4.06208 68.9153 5.21591 69.4337 6.54359C69.9522 7.90289 70.2251 8.89865 70.2525 10.4792L70.2569 10.466ZM55.1085 14.7271C55.0803 13.9622 55.0662 13.2102 55.0662 12.4708C55.0662 11.3643 55.1071 10.1631 55.189 8.86703C55.2982 7.60258 55.5301 6.41714 55.8848 5.31073C56.2669 4.20433 56.8263 3.2718 57.5631 2.51312C58.3 1.78606 59.296 1.42252 60.5513 1.42252C62.1068 1.42252 63.4848 1.80186 64.6855 2.56054C65.9136 3.31921 66.8959 4.33078 67.6327 5.59524C68.3695 6.8597 68.8471 8.28222 69.0654 9.8628C69.2837 11.475 69.1881 12.6604 68.7789 14.3675C68.729 14.4853 68.6789 14.6053 68.6285 14.7271H55.1085Z" fill="#1E1E1E"/>
<path fill-rule="evenodd" clip-rule="evenodd" d="M113.916 10.7805L113.939 10.4675L113.934 10.4808C113.907 8.89999 113.634 7.90409 113.115 6.54458C112.597 5.2167 111.874 4.0627 110.946 3.0826C110.018 2.1341 108.913 1.37531 107.63 0.806215C106.348 0.268738 104.929 0 103.373 0C101.518 1.87951e-07 99.9076 0.395204 98.5432 1.18561C97.3765 1.86144 97.2121 2.0377 96.5848 2.71054L96.5834 2.71216L96.5823 2.71334L96.5818 2.71381C96.4762 2.82707 96.3575 2.95436 96.2187 3.10044C95.9681 3.56694 95.87 3.73447 95.7941 3.86378V3.86389C95.7012 4.02259 95.6417 4.12398 95.3752 4.65066H95.3667V4.66746C95.2654 4.86779 95.1347 5.1283 94.9622 5.47422C94.6579 6.44401 94.2206 7.95976 93.7489 9.60185C93.0324 11.6357 92.1673 13.8836 91.7972 14.8421L91.7795 14.9042L91.7725 14.9064L91.7641 14.9279L91.7697 14.9072L91.7639 14.909L91.764 14.9182L91.7641 14.9279C90.9635 16.6008 90.1168 18.2263 89.2238 19.8044C88.3617 21.3826 87.5611 23.0081 86.8221 24.681C86.0831 26.3854 85.4673 28.1687 84.9746 30.031C84.5127 31.8931 84.2689 33.8161 84.2689 35.994H96.2846H100.175C100.039 35.1088 99.8211 33.8453 99.4936 32.1064C99.1661 30.3674 98.825 28.4072 98.4703 26.2258C98.1428 24.0442 97.8426 21.752 97.5697 19.3492C97.4938 18.6053 97.4479 17.872 97.421 17.1493H111.17C110.714 18.0089 110.245 18.8552 109.763 19.6884C108.88 21.269 108.06 22.8971 107.303 24.5724C106.546 26.2794 105.915 28.0655 105.411 29.9306C104.938 31.7957 104.693 33.8129 104.693 35.994H107.766H110.86H117V0.484444H116.054C116.054 2.47597 115.865 4.32524 115.486 6.03227C115.304 6.94693 114.615 8.90711 113.916 10.7805ZM112.311 14.7271C112.361 14.606 112.411 14.4868 112.46 14.3696C112.87 12.6623 112.965 11.4767 112.747 9.8643C112.529 8.28348 112.051 6.86075 111.314 5.59609C110.578 4.33144 109.595 3.31972 108.367 2.56092C107.166 1.80214 105.788 1.42273 104.233 1.42273C102.978 1.42273 101.97 1.54021 100.665 2.5135C99.0217 3.7392 98.4372 4.80365 98.0551 5.91022C97.7004 7.01678 97.6265 7.60373 97.5174 8.86838C97.4356 10.1646 97.3947 11.3661 97.3947 12.4727C97.3947 12.8651 97.3923 13.2612 97.39 13.6608V13.6656V13.6663C97.388 14.0172 97.386 14.3707 97.3854 14.7271H112.311Z" fill="#1E1E1E"/>
</g>
<defs>
<clipPath id="clip0_27_461">
<rect width="117" height="36" fill="white"/>
</clipPath>
</defs>
</svg>
