<svg width="143" height="143" viewBox="0 0 143 143" fill="none" xmlns="http://www.w3.org/2000/svg">
<path d="M141.569 71.156C135.806 70.0035 130.062 65.1705 126.196 58.2185C121.363 49.5192 112.701 43.9427 102.998 42.9017C102.886 32.0833 96.9752 22.12 87.4766 16.8409C81.5469 13.5507 76.0262 6.89612 74.6506 1.37539C74.4462 0.576092 73.777 -0.000145864 72.8662 0.0184425C72.0297 0.0370308 71.3233 0.631857 71.156 1.44974C70.0036 7.21213 65.1706 12.9559 58.2186 16.8223C49.5192 21.6553 43.887 30.3174 42.8832 40.0205C32.0648 40.1321 22.1014 46.0431 16.841 55.5418C13.5508 61.4715 6.8962 66.9922 1.37547 68.3677C0.557579 68.5722 -7.08662e-05 69.3157 0.0185175 70.1522C0.0371058 70.9887 0.631932 71.695 1.44982 71.8623C7.2122 73.0148 12.956 77.8478 16.8224 84.7998C21.6553 93.4991 30.3175 99.1128 40.0206 100.135C40.1321 110.954 46.0432 120.917 55.5418 126.177C61.4715 129.468 66.9923 136.122 68.3678 141.643C68.5723 142.442 69.2786 143 70.0965 143H70.1337C70.9702 142.981 71.6765 142.386 71.8438 141.569C72.9963 135.806 77.8292 130.062 84.7813 126.196C93.4806 121.363 99.1129 112.701 100.117 102.998C110.935 102.886 120.88 96.9752 126.159 87.4765C129.449 81.5469 136.104 76.0261 141.624 74.6506C142.442 74.4461 143 73.7026 142.981 72.8661C142.963 72.0296 142.368 71.3233 141.55 71.156H141.569ZM96.715 99.2243C90.5808 98.518 84.9486 95.7297 80.5989 91.1942C75.9704 86.3426 73.4424 80.1155 73.2751 73.4609C86.1754 74.9852 96.3246 85.8593 96.6964 99.0385C96.6964 99.0942 96.6964 99.1686 96.6964 99.2243H96.715ZM46.2849 43.7754C52.419 44.4817 58.0513 47.27 62.4009 51.8055C67.0294 56.6571 69.5574 62.8842 69.7062 69.5388C56.8059 68.0145 46.6566 57.1404 46.2849 43.9613C46.2849 43.9055 46.2849 43.8497 46.2849 43.7754ZM59.9473 19.9265C65.9327 16.5992 70.5612 11.9336 73.0149 6.91471C75.9518 12.4726 81.1566 17.3985 85.7293 19.9451C94.0383 24.555 99.243 33.2544 99.3917 42.7158C99.243 42.7158 99.0757 42.7158 98.927 42.7158C86.8074 43.069 76.4165 50.7088 71.9739 61.3785C70.617 56.9359 68.2748 52.8279 64.9661 49.3519C59.9845 44.1285 53.4971 40.9499 46.4336 40.2064C47.3816 31.7301 52.3261 24.1833 59.9473 19.9637V19.9265ZM99.2244 46.2662C98.5181 52.4003 95.7484 58.0326 91.1943 62.3823C86.3427 67.0108 80.1156 69.5388 73.461 69.6875C74.9852 56.7872 85.8594 46.638 99.0385 46.2662C99.0943 46.2662 99.1501 46.2662 99.2244 46.2662ZM19.9452 83.0525C16.6179 77.0671 11.9522 72.4386 6.93337 69.9849C12.4913 67.048 17.4172 61.8432 19.9638 57.2705C24.5737 48.9615 33.273 43.7568 42.7159 43.6081C42.7159 43.7568 42.7159 43.9241 42.7159 44.0728C43.0691 56.1924 50.6903 66.5832 61.3786 71.0259C56.936 72.3828 52.8279 74.7249 49.3519 78.0337C44.1286 83.0153 40.95 89.5212 40.2065 96.5848C31.7488 95.6554 24.1833 90.6737 19.9638 83.0711L19.9452 83.0525ZM69.5389 73.275C68.0146 86.1753 57.1404 96.3246 43.9613 96.7149C43.9056 96.7149 43.8498 96.7149 43.7754 96.7149C44.4818 90.5808 47.2515 84.9485 51.8056 80.5988C56.6571 75.9704 62.8842 73.4237 69.5389 73.275ZM83.0526 123.055C77.0671 126.382 72.4386 131.048 69.985 136.066C67.048 130.508 61.8433 125.583 57.2706 123.036C48.9616 118.426 43.7754 109.745 43.6081 100.284C43.7568 100.284 43.9241 100.284 44.0728 100.284C56.1924 99.9307 66.5833 92.2909 71.0259 81.6212C72.3829 86.0638 74.725 90.1718 78.0337 93.6479C83.0154 98.8712 89.5027 102.05 96.5663 102.793C95.6183 111.27 90.6738 118.816 83.0526 123.036V123.055ZM123.055 85.7292C118.445 94.0382 109.745 99.2429 100.303 99.3916C100.303 99.2429 100.303 99.0756 100.303 98.9269C99.9494 86.8259 92.3281 76.4351 81.677 71.9924C86.1196 70.6355 90.2091 68.2748 93.6665 64.9661C98.8898 59.9844 102.05 53.4971 102.812 46.4335C111.288 47.3815 118.835 52.326 123.055 59.9286C126.382 65.9141 131.048 70.524 136.066 72.9962C130.509 75.9332 125.583 81.1379 123.036 85.7106L123.055 85.7292Z" fill="#649374"/>
</svg>
