<svg width="137" height="105" viewBox="0 0 137 105" fill="none" xmlns="http://www.w3.org/2000/svg">
<path d="M107.314 54.7704C95.9904 54.7704 86.7767 64.0029 86.7767 75.3228C86.7767 86.6428 95.9904 95.8537 107.314 95.8537C118.637 95.8537 127.851 86.6428 127.851 75.3228C127.851 64.0029 118.637 54.7704 107.314 54.7704ZM107.314 91.2912C98.4661 91.2912 91.3405 84.1679 91.3405 75.3228C91.3405 66.4778 98.4661 59.3329 107.314 59.3329C116.162 59.3329 123.287 66.4778 123.287 75.3228C123.287 84.1679 116.162 91.2912 107.314 91.2912Z" fill="#649374"/>
<path d="M134.417 63.2927L124.363 17.4103C122.146 7.25251 113.148 0 102.75 0H98.1862C86.8628 0 77.6276 9.23242 77.6276 20.5308V20.5739L77.929 36.4993C74.9797 35.0359 71.9444 34.2181 68.5 34.2181C65.0556 34.2181 62.1279 35.0143 59.0495 36.4993L59.3724 20.5739V20.5308C59.3724 9.2109 50.1372 0 38.8138 0H34.25C23.8523 0 14.8539 7.25251 12.615 17.4103L2.56175 63.3142C0.925676 66.9943 0 71.0617 0 75.3443C0 91.7001 13.3254 105.022 29.6862 105.022C38.5124 105.022 46.4345 101.126 51.8809 94.9713L51.9885 95.0574C55.0239 91.3988 59.5231 89.2898 64.2806 89.2898H72.7409C77.4984 89.2898 81.9976 91.3988 85.033 95.0574L85.1406 94.9713C90.587 101.105 98.5091 105.022 107.335 105.022C123.696 105.022 137.022 91.7001 137.022 75.3443C137.022 71.0617 136.096 66.9943 134.438 63.3142L134.417 63.2927ZM17.0712 18.3788C18.8364 10.3085 25.9835 4.56241 34.25 4.56241H38.8138C47.6615 4.56241 54.7871 11.6858 54.7871 20.5308L54.4211 40.7819C54.3781 42.7403 56.6815 43.8379 58.1884 42.5681C61.0731 40.1363 64.7327 38.802 68.5 38.802C72.2673 38.802 75.9269 40.1363 78.8116 42.5681C80.3185 43.8164 82.5789 42.7188 82.5574 40.7819L82.2129 20.5308C82.2129 11.6858 89.3385 4.56241 98.1862 4.56241H102.75C111.016 4.56241 118.164 10.3085 119.929 18.3788L127.657 53.7805C122.34 48.7446 115.193 45.6456 107.314 45.6456C97.4973 45.6456 88.8003 50.4663 83.3969 57.8264C80.2109 55.8895 76.5512 54.7704 72.7194 54.7704H64.2591C60.4488 54.7704 56.7676 55.8895 53.6031 57.8264C48.1997 50.4663 39.5027 45.6456 29.6862 45.6456C21.8072 45.6456 14.6601 48.7446 9.34287 53.7805L17.0712 18.3788ZM29.6862 100.438C15.7795 100.438 4.5638 89.2253 4.5638 75.3228C4.5638 61.4204 15.7795 50.208 29.6862 50.208C43.5929 50.208 54.8086 61.4419 54.8086 75.3228C54.8086 89.2037 43.5929 100.438 29.6862 100.438ZM72.7409 84.7274H64.2806C61.9126 84.7274 59.5877 85.1578 57.3919 85.9326C58.662 82.6399 59.3724 79.0674 59.3724 75.3443C59.3724 70.4161 58.1453 65.7891 56.0141 61.7001C58.4898 60.2152 61.3099 59.3544 64.2591 59.3544H72.7194C75.6686 59.3544 78.5102 60.2152 80.9643 61.7001C78.8331 65.7891 77.6061 70.4161 77.6061 75.3443C77.6061 79.089 78.338 82.6399 79.5866 85.9326C77.3908 85.1578 75.0658 84.7274 72.6978 84.7274H72.7409ZM107.335 100.438C93.4287 100.438 82.2129 89.2253 82.2129 75.3228C82.2129 61.4204 93.4287 50.208 107.335 50.208C121.242 50.208 132.458 61.4419 132.458 75.3228C132.458 89.2037 121.242 100.438 107.335 100.438Z" fill="#649374"/>
<path d="M29.6863 54.7704C18.3629 54.7704 9.14917 64.0029 9.14917 75.3228C9.14917 86.6428 18.3629 95.8537 29.6863 95.8537C41.0096 95.8537 50.2233 86.6428 50.2233 75.3228C50.2233 64.0029 41.0096 54.7704 29.6863 54.7704ZM29.6863 91.2912C20.8385 91.2912 13.713 84.1679 13.713 75.3228C13.713 66.4778 20.8385 59.3329 29.6863 59.3329C38.534 59.3329 45.6595 66.4778 45.6595 75.3228C45.6595 84.1679 38.534 91.2912 29.6863 91.2912Z" fill="#649374"/>
<path d="M68.5 66.198C64.7542 66.198 61.6543 69.2755 61.6543 73.0416C61.6543 76.8078 64.7327 79.8852 68.5 79.8852C72.2673 79.8852 75.3457 76.8078 75.3457 73.0416C75.3457 69.2755 72.2673 66.198 68.5 66.198ZM68.5 75.3228C67.2084 75.3228 66.2181 74.3113 66.2181 73.0416C66.2181 71.7719 67.2299 70.7604 68.5 70.7604C69.7701 70.7604 70.7819 71.7504 70.7819 73.0416C70.7819 74.3329 69.7916 75.3228 68.5 75.3228Z" fill="#649374"/>
</svg>
