<svg width="41" height="40" viewBox="0 0 41 40" fill="none" xmlns="http://www.w3.org/2000/svg">
<path d="M17.0908 30.2142C16.8213 29.9446 16.6865 29.6256 16.6865 29.2569C16.6865 28.8889 16.8213 28.5702 17.0908 28.3007L24.9872 20.4042L17.0638 12.4808C16.8123 12.2293 16.6865 11.9149 16.6865 11.5376C16.6865 11.1602 16.8213 10.8368 17.0908 10.5673C17.3603 10.2978 17.6794 10.1631 18.0481 10.1631C18.416 10.1631 18.7348 10.2978 19.0043 10.5673L28.0596 19.6496C28.1674 19.7574 28.2439 19.8742 28.2892 20C28.3338 20.1257 28.356 20.2605 28.356 20.4042C28.356 20.548 28.3338 20.6827 28.2892 20.8085C28.2439 20.9342 28.1674 21.051 28.0596 21.1588L18.9773 30.2411C18.7258 30.4926 18.416 30.6184 18.0481 30.6184C17.6794 30.6184 17.3603 30.4837 17.0908 30.2142Z" fill="#1E1E1E"/>
<path d="M39.8369 20C39.8369 9.50659 31.3303 0.999999 20.8369 0.999999C10.3434 1 1.83685 9.50659 1.83685 20C1.83685 30.4934 10.3434 39 20.8369 39C31.3303 39 39.8369 30.4934 39.8369 20Z" stroke="#1E1E1E" stroke-width="2" stroke-linecap="round" stroke-linejoin="round"/>
</svg>
