<svg width="134" height="133" viewBox="0 0 134 133" fill="none" xmlns="http://www.w3.org/2000/svg">
<g clip-path="url(#clip0_36_335)">
<path d="M67.2026 55.4033C61.1792 55.2157 56.0472 60.1207 55.8041 66.2856C55.561 72.2628 60.666 77.5163 66.8785 77.6504C72.9019 77.7844 78.0339 72.8257 78.223 66.6876C78.385 60.7104 73.4151 55.6177 67.2026 55.4033ZM66.8785 73.0937C63.178 73.0401 60.3689 70.1721 60.3689 66.4732C60.3689 62.7207 63.2861 59.9063 67.1216 59.9599C70.8221 59.9867 73.6312 62.8815 73.6312 66.5804C73.6312 70.3329 70.687 73.1473 66.8785 73.1205V73.0937Z" fill="#649374"/>
<path d="M23.8504 20.9605C25.2009 20.9605 26.2814 19.8884 26.2814 18.5482C26.2814 17.208 25.2009 16.1358 23.8504 16.1358C22.4999 16.1358 21.4194 17.208 21.4194 18.5482C21.4194 19.8884 22.4999 20.9605 23.8504 20.9605Z" fill="#649374"/>
<path d="M133.838 62.1576C131.758 30.1004 106.233 3.6719 74.0363 0.401846C56.2092 -1.394 40.7321 2.89459 27.848 12.5171C27.6049 12.6779 26.9297 13.2944 26.8216 13.4016C26.4975 13.7769 26.2814 14.2594 26.2814 14.7686C26.2814 16.0016 27.3348 17.0201 28.6313 17.0201C29.1716 17.0201 29.6307 16.8325 30.0089 16.5377C39.5437 9.4615 50.9422 5.19971 63.6912 4.71724C63.232 6.03063 62.8809 7.23679 62.3947 8.41616C62.2326 8.79141 61.7464 9.13986 61.3143 9.16666C36.8696 11.4718 16.9087 28.8942 10.9664 51.5165C10.156 54.5453 9.83191 57.6814 9.21066 60.7638C9.12963 61.1927 8.8055 61.7823 8.42735 61.9432C7.26589 62.4524 6.0234 62.8009 4.78091 63.2029C5.10504 49.3454 10.8583 35.9168 20.258 25.4097C20.4201 25.2221 20.9603 24.6056 21.1224 24.3644C21.4195 23.9087 21.7436 23.2654 21.7706 22.7829C21.7166 21.5768 20.7442 20.6386 19.5287 20.6386C18.9615 20.6386 18.4753 20.8531 18.0972 21.1747C17.9621 21.2819 17.3409 21.8448 17.1248 22.086C6.48258 33.8797 1.82361e-05 49.399 1.82361e-05 66.4462C-0.0269924 103.14 29.9549 132.973 66.8785 133.027C105.396 133.08 136.35 100.916 133.838 62.1844V62.1576ZM27.5239 30.6096C36.3564 21.0943 47.2957 15.5996 60.531 13.8037C57.5058 22.3809 54.5886 30.6632 51.5904 39.1064C50.3209 38.5435 49.1054 38.0075 47.917 37.4714C43.5953 35.4879 39.3006 33.5312 34.9789 31.521C33.9254 31.0385 32.899 30.8241 31.9537 31.7086C30.9543 32.6467 31.1703 33.7189 31.6835 34.8178C34.0065 39.7497 36.3024 44.7084 38.6253 49.6671C38.8414 50.1495 39.0575 50.632 39.3276 51.3021C30.8732 54.2505 22.4729 57.1453 13.8565 60.1473C15.3151 48.7289 19.8259 38.9456 27.5239 30.6364V30.6096ZM50.0778 43.3682C49.5646 44.8424 49.1325 46.1826 48.6192 47.496C48.4842 47.8444 48.1871 48.1393 47.8089 48.3001C46.4854 48.8362 45.1349 49.265 43.6493 49.7743C41.8396 45.9145 40.0839 42.1352 38.3012 38.3291C38.4092 38.2219 38.4092 38.2219 38.5443 38.0879C42.3258 39.8301 46.1343 41.5723 50.0508 43.3682H50.0778ZM4.7539 69.7967C6.05041 70.2255 7.31991 70.6008 8.50838 71.11C8.83251 71.2441 9.15664 71.8069 9.18365 72.209C11.6686 97.1096 29.9819 117.534 54.6426 122.841C56.8575 123.324 59.1264 123.484 61.3413 123.887C61.7464 123.967 62.2326 124.315 62.3947 124.691C62.8809 125.816 63.232 126.996 63.6642 128.282C32.0617 127.237 5.61824 100.46 4.72689 69.7967H4.7539ZM31.7916 98.1818C31.4945 98.8251 31.2514 99.6024 31.3594 100.272C31.5755 101.747 33.1691 102.363 34.7628 101.639C39.1385 99.656 43.4872 97.6457 47.8359 95.6354C49.0514 95.0725 50.2399 94.5365 51.5904 93.92C54.5616 102.336 57.5058 110.646 60.5039 119.223C48.7273 117.695 38.6523 113.085 30.198 105.151C20.9333 96.4663 15.5852 85.7449 13.8295 72.9327C22.4459 75.9347 30.8192 78.8295 39.3546 81.8047C36.7616 87.4067 34.2496 92.7942 31.7646 98.1818H31.7916ZM43.6763 83.3057C45.1349 83.815 46.4854 84.2439 47.8089 84.7531C48.1871 84.9139 48.4842 85.2088 48.6192 85.5572C49.1325 86.8438 49.5646 88.184 50.1048 89.6582C46.2153 91.4272 42.3798 93.1963 38.5443 94.9653C38.4362 94.8581 38.4362 94.8581 38.3282 94.7509C40.1109 90.9448 41.8666 87.1655 43.6763 83.2789V83.3057ZM67.0135 123.779C66.7164 123.082 66.5273 122.68 66.3653 122.252C61.8005 109.332 57.2086 96.4127 52.6979 83.4665C52.2387 82.18 51.2123 81.1614 49.9158 80.7058C36.8426 76.2027 23.7694 71.6729 10.7233 67.1163C10.3451 66.9823 9.99397 66.8214 9.21066 66.4998C13.3703 65.0524 17.1518 63.7122 20.9063 62.4256C30.5491 59.0752 40.1649 55.6979 49.8347 52.401C51.2123 51.9454 52.2927 50.8732 52.7519 49.5062C57.2627 36.6137 61.8275 23.7479 66.3923 10.8553C66.5543 10.4264 66.7434 9.99757 67.0405 9.19346C68.202 12.4367 69.2284 15.3047 70.2548 18.1995C73.9283 28.653 77.6287 39.0796 81.2752 49.5599C81.7343 50.8732 82.7607 51.8918 84.0843 52.3474C97.0764 56.7969 110.069 61.3535 123.034 65.8565C123.493 66.0173 123.952 66.1782 124.816 66.4998C124.087 66.7946 123.655 66.9555 123.25 67.1163C110.177 71.6729 97.0764 76.2295 83.9762 80.7326C82.7337 81.1614 81.7614 82.1264 81.3292 83.3593C76.7914 96.3055 72.2266 109.225 67.6618 122.144C67.4997 122.6 67.3376 123.029 67.0405 123.779H67.0135ZM95.3477 49.6403C97.6166 44.7352 99.8855 39.8301 102.208 34.925C102.749 33.7725 103.073 32.6735 102.019 31.6818C101.02 30.7436 99.9666 31.0385 98.8591 31.5478C93.43 34.0673 88.0008 36.5332 82.3826 39.1064C79.4114 30.69 76.4943 22.3809 73.4961 13.9377C96.9684 16.1356 117.578 35.9704 119.981 60.0401C111.527 57.1185 103.154 54.2237 94.6725 51.2753C94.9156 50.6856 95.1316 50.1495 95.3477 49.6403ZM90.2967 49.7475C88.8382 49.2382 87.4876 48.8093 86.1641 48.2733C85.7859 48.1125 85.4888 47.8176 85.3538 47.4692C84.8406 46.1826 84.4084 44.8692 83.8682 43.3682C87.7307 41.5992 91.5392 39.8301 95.3477 38.0879C95.4828 38.2219 95.4828 38.2219 95.6178 38.3559C93.8621 42.1352 92.1064 45.8877 90.2967 49.7475ZM91.3231 98.021C93.8351 99.1735 96.3741 100.299 98.8591 101.479C99.9666 101.988 101.02 102.283 102.019 101.345C103.073 100.326 102.749 99.2271 102.208 98.1014C99.9125 93.2499 97.6706 88.3984 95.4017 83.5201C95.1587 82.9841 94.9156 82.4748 94.6184 81.7779C103.1 78.8295 111.473 75.9347 120.09 72.9327C118.577 84.5655 113.958 94.5097 106.017 102.872C97.2385 112.12 86.4342 117.507 73.4421 119.223C76.4673 110.646 79.4114 102.363 82.3826 93.92C85.4348 95.3138 88.379 96.654 91.3231 98.021ZM83.8952 89.6582C84.4084 88.2376 84.8406 86.8706 85.3808 85.584C85.5429 85.2088 85.84 84.9139 86.2181 84.7531C87.5146 84.217 88.8111 83.815 90.3237 83.3057C92.1064 87.1118 93.8621 90.8912 95.6448 94.6705C95.5098 94.8045 95.5098 94.8045 95.3747 94.9385C91.5932 93.1963 87.7847 91.454 83.8952 89.6582ZM70.3899 128.256C70.3899 128.095 70.3628 128.041 70.3628 127.988C70.741 124.664 72.7398 123.887 75.927 123.324C98.562 119.33 113.985 106.491 121.872 85.0748C123.385 80.9738 123.79 76.4708 124.762 72.1822C124.87 71.7533 125.222 71.1904 125.6 71.0296C126.707 70.5472 127.923 70.1987 129.111 69.7967C129.03 97.8601 103.829 127.157 70.4169 128.229L70.3899 128.256ZM125.222 61.7823C124.951 61.6751 124.762 61.0854 124.735 60.7102C122.547 35.9436 103.1 14.6078 78.466 10.0512C76.5213 9.70273 74.5495 9.48831 72.6047 9.13986C72.1726 9.05945 71.6594 8.68419 71.4973 8.28214C71.0381 7.15638 70.687 5.97702 70.2818 4.77085C99.9936 5.44094 127.977 30.69 129.219 63.2565C127.815 62.7741 126.491 62.3452 125.222 61.8091V61.7823Z" fill="#649374"/>
</g>
<defs>
<clipPath id="clip0_36_335">
<rect width="134" height="133" fill="white"/>
</clipPath>
</defs>
</svg>
