<svg width="115" height="154" viewBox="0 0 115 154" fill="none" xmlns="http://www.w3.org/2000/svg">
<path d="M114.054 79.4004C113.98 75.8682 111.367 72.9827 107.833 72.4603C106.514 72.2613 105.17 72.4355 103.727 72.4355C103.727 70.0972 103.751 67.56 103.727 65.0476C103.677 60.8189 100.591 57.2121 96.3601 56.64C94.867 56.441 93.3489 56.6151 91.7313 56.6151C90.5865 52.9336 87.9485 50.5456 83.8921 50.2223C79.4374 49.874 76.4013 52.1625 74.6841 56.2171C68.3878 53.257 61.8427 58.0329 62.2907 64.7243C62.4898 67.6346 62.3156 70.5698 62.3156 73.5051V94.1512C60.5984 95.1213 59.0306 96.0168 57.612 96.8128C56.3677 96.1163 55.2229 95.37 53.9786 94.8477C53.1574 94.4994 52.8338 94.1014 52.8836 93.2308C52.9583 91.3403 52.8836 89.4498 52.8836 87.5594C52.8836 79.8233 52.9085 72.0872 52.8836 64.3511C52.8836 59.6996 50.4696 56.4161 46.2141 55.6201C44.3974 55.2718 42.4313 55.6947 40.3409 55.7942C38.2504 51.9884 35.7369 50.0979 32.1035 50.1974C27.5742 50.2969 24.7122 52.7595 23.3186 56.9882C16.2509 54.849 10.9003 60.4707 11.4478 66.167C11.6469 68.3311 11.4727 70.5201 11.4727 72.734C10.9003 72.6345 10.4523 72.535 10.0044 72.4603C5.47505 71.6395 1.26925 74.8732 1.14481 79.4999C0.647087 97.36 -0.721664 115.22 0.472883 133.105C0.97061 140.518 3.03618 147.284 8.36187 152.731C9.00891 153.378 10.1039 153.95 10.9998 153.95C22.5969 154.025 34.1691 154.025 45.7661 153.95C46.5376 153.95 47.5828 153.602 48.0308 153.055C49.8475 150.791 51.714 148.503 53.1325 145.99C54.7999 143.08 56.0193 139.946 57.612 136.513C59.1052 139.722 60.2251 142.607 61.7681 145.294C63.2861 147.955 65.1277 150.443 67.0191 152.856C67.5168 153.503 68.6865 153.95 69.5326 153.95C81.055 154.025 92.5774 154.025 104.125 153.95C105.021 153.95 106.14 153.428 106.788 152.806C109.475 150.169 111.367 146.96 112.686 143.453C114.677 138.155 115.075 132.583 115 127.036C114.826 111.166 114.428 95.2954 114.054 79.4253V79.4004ZM54.4266 131.513C52.4854 135.841 50.5194 140.17 48.429 144.423C47.7072 145.891 46.5874 147.184 45.5421 148.453C45.2186 148.851 44.472 149.075 43.8996 149.075C33.5718 149.1 23.2439 149.125 12.9161 149.075C12.1944 149.075 11.2736 148.577 10.8007 148.03C7.51573 144.199 6.07232 139.597 5.59948 134.672C4.4547 122.583 4.95243 110.519 5.45016 98.4296C5.69902 92.7084 5.79857 86.9624 5.97277 81.2411C5.97277 80.5695 5.99766 79.8482 6.17187 79.2014C6.52028 77.9577 7.44107 77.0871 8.68539 77.3607C9.60619 77.5597 10.527 78.3308 11.1243 79.1019C11.5473 79.6492 11.4727 80.6442 11.4727 81.4153C11.4976 88.5295 11.4727 95.6437 11.4727 102.733C11.4727 103.181 11.4229 103.653 11.4976 104.101C11.7464 105.444 12.5677 106.265 13.9862 106.24C15.3052 106.24 16.1513 105.519 16.3255 104.201C16.4251 103.529 16.4251 102.832 16.4251 102.136C16.4251 90.3205 16.3753 78.5049 16.3504 66.7143C16.3504 65.8685 16.3753 64.973 16.5993 64.1522C17.0721 62.3114 18.9884 61.0925 20.8299 61.4657C22.2734 61.7642 23.2439 62.4109 23.219 64.2268C23.1444 76.4901 23.1942 88.7533 23.1942 101.042C23.1942 101.564 23.1693 102.086 23.1942 102.584C23.3186 104.026 24.0652 104.947 25.5335 105.096C26.8773 105.245 27.9475 104.225 28.1465 102.683C28.2212 102.186 28.1963 101.663 28.1963 101.141C28.1963 94.2009 28.1963 87.2609 28.1963 80.3208C28.1963 73.5548 28.1963 66.7889 28.1963 60.0229C28.1963 56.6151 29.3909 55.1226 32.0786 55.1723C34.617 55.1972 35.8862 56.7892 35.8862 59.9981C35.8862 73.0822 35.8862 86.1415 35.8862 99.2256C35.8862 99.748 35.8364 100.27 35.8862 100.768C36.0355 102.161 36.8568 102.982 38.2504 103.031C39.6192 103.081 40.5151 102.31 40.7142 100.892C40.7888 100.27 40.7639 99.6236 40.7639 99.0018C40.7639 87.7584 40.7639 76.5149 40.7639 65.2964C40.7639 64.5999 40.7639 63.9034 40.8884 63.2318C41.2119 61.391 42.5558 60.2966 44.3476 60.2966C46.1145 60.2966 47.5082 61.4408 47.8317 63.2318C47.9312 63.7293 47.9063 64.2516 47.9063 64.774C47.9063 74.3011 47.9063 83.8033 47.9063 93.3303C47.9063 94.3751 47.7072 95.0218 46.6869 95.6437C42.7797 98.0068 41.7096 102.808 43.7005 106.937C47.3588 114.499 50.8678 122.16 54.3768 129.772C54.6008 130.245 54.551 131.016 54.327 131.513H54.4266ZM57.5374 124.548C54.775 118.603 52.1619 112.932 49.5488 107.285C49.1507 106.414 48.7027 105.544 48.2547 104.673C47.2842 102.758 47.7819 100.743 49.4742 99.748C51.1416 98.7779 53.0329 99.2505 54.2773 100.992C54.6754 101.539 54.999 102.161 55.3971 102.733C56.7161 104.599 58.5328 104.574 59.8518 102.683C60.2998 102.036 60.6731 101.29 61.1708 100.668C62.3404 99.2008 64.2567 98.8525 65.7748 99.7729C67.268 100.693 67.915 102.633 67.1684 104.275C64.1572 110.743 61.0961 117.21 58.06 123.678C57.9604 123.877 57.836 124.051 57.5374 124.548ZM109.55 134.523C109.301 139.523 107.683 144.174 104.349 148.055C103.876 148.602 102.93 149.05 102.208 149.075C92.005 149.149 81.7767 149.1 71.5733 149.149C70.4534 149.149 69.6819 148.826 69.1593 147.906C67.915 145.791 66.5462 143.752 65.4512 141.563C63.8087 138.304 62.2907 134.946 60.8224 131.588C60.5735 131.016 60.5735 130.12 60.8224 129.548C64.3562 121.862 67.9648 114.2 71.5733 106.539C73.4647 102.559 72.1457 97.957 68.2883 95.5939C67.5168 95.1213 67.1684 94.6735 67.1684 93.7532C67.1933 83.9028 67.1684 74.0274 67.1684 64.177C67.1684 62.4607 67.8403 61.0925 69.4828 60.5204C71.0009 59.9981 72.5688 60.1722 73.4647 61.6398C74.0122 62.5602 74.3108 63.779 74.3108 64.8735C74.3606 76.2164 74.3357 87.5842 74.3357 98.9271C74.3357 99.549 74.3357 100.196 74.3855 100.818C74.5348 102.235 75.4058 102.957 76.7746 103.031C78.0686 103.106 79.1139 102.061 79.2134 100.668C79.2383 100.221 79.2134 99.748 79.2134 99.3003C79.2134 86.042 79.2134 72.8086 79.2134 59.5752C79.2134 57.038 80.3831 55.4957 82.4486 55.2221C85.2359 54.8738 86.9033 56.441 86.9033 59.4757C86.9033 73.3558 86.9033 87.236 86.9033 101.116C86.9033 101.788 86.9033 102.509 87.0526 103.156C87.3264 104.449 88.1974 105.146 89.5164 105.121C90.8354 105.096 91.6068 104.25 91.8806 103.007C92.005 102.459 91.9304 101.862 91.9304 101.29C91.9304 89.1265 91.9304 76.9876 91.9304 64.8238C91.9304 62.6099 92.5027 61.789 94.2448 61.4657C96.0117 61.1423 97.9529 62.2119 98.4755 63.9531C98.7243 64.8238 98.7741 65.769 98.7741 66.6645C98.7741 78.5795 98.7243 90.5195 98.6995 102.434C98.6995 103.056 98.6995 103.703 98.7741 104.325C98.9732 105.793 99.8193 106.589 101.337 106.514C102.756 106.439 103.527 105.569 103.652 104.201C103.751 103.131 103.677 102.012 103.677 100.942C103.677 94.5243 103.677 88.1066 103.677 81.664C103.677 81.1417 103.652 80.6193 103.702 80.1218C103.95 78.2064 105.07 77.1368 106.688 77.2363C108.206 77.3358 109.127 78.4552 109.177 80.3705L110.446 105.992C110.147 115.494 109.973 124.996 109.525 134.498L109.55 134.523Z" fill="#649374"/>
<path d="M57.4129 54.2769C55.8699 54.2769 54.6007 53.0082 54.6007 51.466C54.6007 39.6007 44.9448 29.9493 33.074 29.9493C31.531 29.9493 30.2618 28.6807 30.2618 27.1384C30.2618 25.5962 31.531 24.3276 33.074 24.3276C44.9448 24.3276 54.6007 14.6761 54.6007 2.81085C54.6007 1.26862 55.8699 0 57.4129 0C58.9558 0 60.2251 1.26862 60.2251 2.81085C60.2251 14.6761 69.881 24.3276 81.7518 24.3276C83.2947 24.3276 84.5639 25.5962 84.5639 27.1384C84.5639 28.6807 83.2947 29.9493 81.7518 29.9493C69.881 29.9493 60.2251 39.6007 60.2251 51.466C60.2251 53.0082 58.9558 54.2769 57.4129 54.2769ZM42.2571 27.1384C49.2253 29.7752 54.7749 35.3222 57.4129 42.2872C60.0508 35.3222 65.6005 29.7752 72.5687 27.1384C65.6005 24.5017 60.0508 18.9546 57.4129 11.9897C54.7749 18.9546 49.2253 24.5017 42.2571 27.1384Z" fill="#649374"/>
</svg>
